<?xml version="1.0" standalone="no"?>
<!DOCTYPE svg PUBLIC "-//W3C//DTD SVG 20010904//EN"
 "http://www.w3.org/TR/2001/REC-SVG-20010904/DTD/svg10.dtd">
<svg version="1.0" xmlns="http://www.w3.org/2000/svg"
 width="1024.000000pt" height="1024.000000pt" viewBox="0 0 1024.000000 1024.000000"
 preserveAspectRatio="xMidYMid meet">
<metadata>
Created by potrace 1.11, written by Peter Selinger 2001-2013
</metadata>
<g transform="translate(0.000000,1024.000000) scale(0.100000,-0.100000)"
fill="#000000" stroke="none">
<path d="M1530 10225 c-793 -124 -1396 -730 -1515 -1523 -22 -146 -22 -7018 0
-7164 120 -797 726 -1403 1523 -1523 146 -22 7018 -22 7164 0 797 120 1403
726 1523 1523 22 146 22 7018 0 7164 -120 797 -726 1403 -1523 1523 -138 21
-7039 21 -7172 0z m3825 -1705 c723 -39 1418 -309 2019 -784 112 -89 446 -418
490 -483 89 -133 34 -370 -108 -458 -45 -27 -58 -30 -130 -30 -58 0 -90 5
-114 18 -18 10 -122 104 -230 210 -227 222 -313 293 -507 422 -361 240 -700
374 -1180 466 -111 22 -146 24 -465 24 -317 0 -355 -2 -465 -23 -345 -65 -592
-146 -866 -282 -308 -153 -500 -295 -811 -596 -115 -111 -226 -210 -246 -220
-57 -28 -150 -30 -204 -6 -68 30 -121 84 -154 154 -25 55 -29 75 -29 158 0 87
3 99 29 145 53 92 407 432 611 586 381 289 864 512 1340 620 115 26 400 72
510 82 86 8 329 6 510 -3z m27 -1250 c268 -22 587 -119 847 -256 228 -120 388
-240 592 -444 195 -194 214 -227 214 -370 0 -84 -3 -102 -28 -152 -35 -72
-131 -163 -189 -178 -54 -15 -130 -4 -173 26 -20 13 -103 93 -185 178 -217
222 -339 314 -565 422 -561 270 -1235 222 -1754 -123 -116 -78 -199 -150 -381
-334 -136 -137 -161 -158 -202 -169 -118 -32 -234 36 -309 180 -17 35 -24 66
-27 138 -4 88 -3 96 26 155 59 119 276 337 486 488 312 224 681 376 1056 433
112 17 423 20 592 6z m-37 -1245 c239 -36 472 -133 670 -280 180 -133 245
-223 245 -340 0 -159 -103 -306 -234 -336 -44 -9 -62 -9 -108 5 -54 15 -75 29
-243 162 -80 63 -222 136 -310 160 -88 24 -330 30 -421 11 -154 -33 -284 -101
-439 -231 -130 -109 -200 -132 -296 -101 -135 45 -237 227 -209 373 15 79 42
122 126 201 167 156 408 287 636 347 165 42 410 55 583 29z m-1528 -463 l-32
-49 -140 -7 c-310 -16 -793 -60 -1105 -102 -712 -95 -1139 -224 -1196 -360 -8
-20 -12 -45 -8 -57 63 -209 958 -395 2304 -477 501 -30 705 -35 1485 -35 809
0 990 5 1555 41 989 62 1761 187 2068 335 299 144 181 297 -328 424 -401 101
-1063 186 -1740 225 -107 6 -205 13 -216 16 -18 3 -53 45 -72 86 -4 8 5 8 443
-23 1367 -94 2344 -305 2516 -542 221 -305 -854 -595 -2636 -711 -551 -36
-737 -41 -1595 -41 -858 0 -1044 5 -1595 41 -1782 116 -2857 406 -2636 711
186 256 1293 476 2861 566 30 2 65 4 77 5 20 2 20 0 -10 -46z m-2483 -1107
c1112 -346 3801 -473 5926 -279 727 66 1399 182 1729 299 24 8 46 13 49 10 7
-7 -254 -1676 -278 -1782 -26 -111 -73 -228 -115 -285 -37 -50 -203 -179 -304
-235 -197 -111 -498 -188 -1171 -302 -826 -140 -1140 -165 -2040 -165 -901 0
-1216 25 -2040 165 -479 81 -598 105 -805 164 -266 76 -375 128 -553 263 -121
93 -174 175 -221 342 -11 41 -81 464 -156 940 -74 476 -137 873 -139 883 -2 9
-2 17 1 17 3 0 55 -16 117 -35z"/>
<path d="M4781 3787 c-88 -33 -154 -132 -174 -256 -24 -158 50 -334 166 -393
56 -28 140 -22 194 14 127 84 171 321 91 483 -63 126 -178 189 -277 152z"/>
<path d="M5370 3791 c-75 -23 -122 -67 -164 -150 -66 -132 -58 -306 20 -424
78 -119 238 -129 333 -22 76 87 113 226 92 343 -33 178 -158 290 -281 253z"/>
<path d="M4281 3283 c-46 -23 -87 -84 -102 -148 -28 -125 43 -280 155 -337
171 -87 326 87 267 299 -16 57 -68 130 -119 167 -54 38 -146 47 -201 19z"/>
<path d="M5803 3280 c-147 -75 -206 -300 -113 -429 38 -52 82 -75 145 -74 93
1 173 62 223 172 51 111 25 257 -56 319 -48 37 -139 42 -199 12z"/>
<path d="M5000 3086 c-232 -64 -452 -320 -499 -580 -24 -132 -9 -211 53 -272
70 -71 160 -78 405 -33 134 24 201 24 342 -2 148 -28 278 -30 341 -6 113 44
152 157 113 327 -64 274 -267 504 -499 566 -63 17 -195 17 -256 0z"/>
</g>
</svg>
