<?xml version="1.0" encoding="UTF-8"?>
<svg width="1261px" height="200px" viewBox="0 0 1261 200" version="1.1" xmlns="http://www.w3.org/2000/svg" xmlns:xlink="http://www.w3.org/1999/xlink">
    <!-- Generator: Sketch 63.1 (92452) - https://sketch.com -->
    <title>Artboard</title>
    <desc>Created with Sketch.</desc>
    <g id="Page-1" stroke="none" stroke-width="1" fill="none" fill-rule="evenodd">
        <g id="Artboard" transform="translate(-1035.000000, -290.000000)" fill="#FFFFFF">
            <path d="M1045.12515,408.083119 C1064.1757,415.207125 1108.43965,420.199764 1160.00394,420.199764 C1211.56218,420.199764 1255.82179,415.208296 1274.87602,408.085627 L1266.83159,459.268321 C1265.66419,465.14491 1263.81982,469.085958 1261.29848,471.091465 C1257.51646,474.099724 1254.34471,476.440256 1249.66522,478.152377 C1244.98573,479.864497 1236.8797,482.173167 1227.06531,483.715943 C1217.25093,485.258718 1202.48337,488.513365 1184.91913,489.281848 C1173.20964,489.79417 1164.90327,490.032378 1160.00004,489.996473 L1159.69559,489.998328 C1154.75635,490.022541 1146.55147,489.783714 1135.08095,489.281848 C1117.51671,488.513365 1102.74915,485.258718 1092.93476,483.715943 C1083.12038,482.173167 1075.01435,479.864497 1070.33486,478.152377 C1065.65537,476.440256 1062.48362,474.099724 1058.7016,471.091465 C1056.25442,469.144944 1054.44497,465.375062 1053.27325,459.78182 L1053.16849,459.268321 L1045.12515,408.083119 Z M1160.00389,449.117665 C1155.16849,449.117665 1150.4496,451.603866 1146.71658,456.118232 C1143.36102,460.175972 1141.35774,465.289909 1141.35774,469.797979 C1141.35774,471.987867 1142.02619,473.655899 1143.34444,474.755945 C1144.64557,475.841771 1146.36339,476.20896 1148.27986,476.20896 C1150.31912,476.20896 1152.58347,475.793037 1154.80826,475.384278 C1156.75237,475.027076 1158.58864,474.689736 1160.004,474.689736 C1161.22558,474.689736 1162.94795,475.009926 1164.77111,475.348895 C1169.03202,476.141231 1173.86156,477.039068 1176.65141,474.715894 C1177.97768,473.611506 1178.65014,471.956825 1178.65014,469.797979 C1178.65014,465.289909 1176.64697,460.175972 1173.2913,456.118232 C1169.55807,451.603866 1164.83928,449.117665 1160.00389,449.117665 Z M1135.90939,443.520375 C1132.67123,444.633184 1131.18792,448.844659 1132.59633,452.92697 C1134.00473,457.009279 1137.77151,459.416536 1141.00967,458.303729 C1144.24783,457.19092 1145.73114,452.979445 1144.32273,448.897135 C1142.91433,444.814825 1139.14755,442.407568 1135.90939,443.520375 Z M1175.67727,448.897135 C1174.26886,452.979445 1175.75217,457.19092 1178.99033,458.303729 C1182.22849,459.416536 1185.99527,457.009279 1187.40367,452.92697 C1188.81208,448.844659 1187.32877,444.633184 1184.09061,443.520375 C1180.85245,442.407568 1177.08567,444.814825 1175.67727,448.897135 Z M1151.53928,428.802943 L1151.3238,428.809843 C1147.36375,429.016975 1144.38532,433.599951 1144.67131,439.046206 C1144.95729,444.492461 1148.39939,448.739609 1152.35945,448.532477 C1156.3195,448.325345 1159.29793,443.742369 1159.01194,438.296114 C1158.73636,433.047905 1155.53002,428.91318 1151.75363,428.80476 L1151.53928,428.802943 Z M1168.46251,428.802943 L1168.24816,428.80476 C1164.47177,428.91318 1161.26543,433.047905 1160.98985,438.296114 C1160.70386,443.742369 1163.68229,448.325345 1167.64234,448.532477 C1171.6024,448.739609 1175.04449,444.492461 1175.33048,439.046206 C1175.61127,433.698974 1172.74527,429.183914 1168.893,428.82546 L1168.67799,428.809843 L1168.46251,428.802943 Z M1196.81306,375.993458 C1247.88131,378.505848 1285,386.10844 1285,395.097074 C1285,406.134131 1229.03559,415.081433 1160,415.081433 C1090.96441,415.081433 1035,406.134131 1035,395.097074 C1035,386.11712 1072.04704,378.520531 1123.03904,376.00075 C1122.10708,377.006324 1121.4588,377.94378 1121.01532,378.942421 C1079.03324,381.172946 1049.16667,386.893332 1049.16667,393.598247 C1049.16667,402.243941 1098.82575,409.252662 1160.08333,409.252662 C1221.34092,409.252662 1271,402.243941 1271,393.598247 C1271,386.872013 1240.9432,381.13658 1198.7518,378.921428 C1198.28866,377.915979 1197.6524,376.950881 1196.8449,376.031131 L1196.81306,375.993458 Z M1156.94809,362.907414 C1158.70484,362.778935 1161.22589,362.71553 1162.53471,362.778935 C1172.3675,363.194406 1182.45673,367.449226 1190.2447,374.518902 C1193.24533,377.238649 1194.29938,380.502347 1193.34191,384.116441 C1192.09636,388.818434 1188.45632,391.92195 1184.68972,391.538182 C1182.54998,391.314595 1181.01803,390.513688 1178.49531,388.242782 C1172.84541,383.188723 1167.29042,380.981222 1160.2984,380.981222 C1153.30637,380.981222 1147.75139,383.188723 1142.10149,388.242782 C1138.30325,391.664992 1135.52576,392.400826 1132.36528,390.865754 C1128.5354,388.946913 1126.17253,384.051367 1127.09836,379.701439 C1127.51465,377.559012 1128.59867,376.02394 1131.1214,373.848142 C1138.78282,367.257342 1147.49828,363.546471 1156.94809,362.907414 Z M1152.31893,326.726426 C1156.05556,326.24755 1167.92984,326.534542 1171.47498,327.175268 C1187.05258,329.958421 1199.9193,336.771139 1210.99431,348.095634 C1215.46527,352.670817 1216.48602,354.49455 1216.48602,357.91676 C1216.48602,361.275565 1215.59182,363.483066 1213.2939,365.785675 C1211.25074,367.801291 1209.59057,368.47372 1207.29265,368.153357 C1205.37771,367.898068 1204.13217,367.162234 1202.472,365.306799 C1195.83133,357.980165 1191.74501,354.492881 1185.9669,351.230853 C1177.95413,346.752446 1169.68659,344.60835 1160.30006,344.60835 C1150.9152,344.60835 1142.646,346.752446 1134.63323,351.230853 C1128.85511,354.49455 1124.7688,357.981834 1118.12813,365.306799 C1115.7969,367.898068 1113.37075,368.729009 1110.52998,367.961473 C1108.51847,367.417523 1105.70933,364.570965 1104.81514,362.108175 C1103.73112,359.259949 1103.82603,356.12473 1105.10321,353.630238 C1106.1889,351.391034 1111.80716,345.504365 1116.08497,342.082155 C1126.49224,333.699325 1139.10253,328.358275 1152.31893,326.726426 Z M1153.2764,290.098265 C1156.40524,289.811273 1169.27196,290.195041 1173.0702,290.705619 C1192.92728,293.263517 1210.70956,300.813737 1226.54361,313.449719 C1231.49081,317.415878 1240.11136,326.0857 1241.10047,328.133019 C1242.21779,330.468999 1242.18615,334.148167 1241.03719,336.610957 C1239.88823,339.075416 1238.7709,340.290125 1236.72775,341.281248 C1235.29238,341.985379 1234.68459,342.113858 1233.15264,341.985379 C1232.16187,341.921974 1230.75814,341.569908 1230.08707,341.249545 C1229.38438,340.89748 1226.86332,338.626574 1224.18074,335.875124 C1218.81725,330.34052 1214.06154,326.342658 1208.72968,322.823671 C1197.65302,315.465335 1186.0002,311.0203 1172.11273,308.876204 C1166.9091,308.076965 1153.69269,308.076965 1148.48906,308.876204 C1134.60159,311.0203 1122.95044,315.465335 1111.87211,322.823671 C1106.54192,326.342658 1101.78454,330.34052 1096.42105,335.875124 C1093.73847,338.626574 1091.21741,340.89748 1090.51471,341.249545 C1089.84365,341.569908 1088.43826,341.921974 1087.44915,341.985379 C1085.9172,342.113858 1085.31108,341.985379 1083.87404,341.281248 C1080.58534,339.651068 1078.73368,336.450776 1078.73368,332.292732 C1078.73368,328.581916 1079.22444,327.618028 1084.8164,322.005894 L1085.7257,321.096715 C1095.11057,311.724431 1104.94336,304.813268 1116.27646,299.63073 C1128.05583,294.224606 1139.10253,291.378048 1153.2764,290.098265 Z" id="Combined-Shape"></path>
            <path d="M1351.5875,442.925 C1354.42417,442.925 1357.29167,442.74 1360.19,442.37 C1363.08833,442 1365.21583,441.63 1366.5725,441.26 L1366.5725,441.26 L1366.5725,407.22 L1379.7075,407.22 C1387.23083,407.22 1393.86,406.264167 1399.595,404.3525 C1405.33,402.440833 1410.07833,399.7275 1413.84,396.2125 C1417.60167,392.6975 1420.43833,388.504167 1422.35,383.6325 C1424.26167,378.760833 1425.2175,373.303333 1425.2175,367.26 C1425.2175,354.803333 1420.71583,344.936667 1411.7125,337.66 C1402.70917,330.383333 1389.6975,326.745 1372.6775,326.745 C1367.25083,326.745 1361.855,327.084167 1356.49,327.7625 C1351.125,328.440833 1346.34583,329.52 1342.1525,331 C1339.68583,331.863333 1337.74333,333.004167 1336.325,334.4225 C1334.90667,335.840833 1334.1975,337.845 1334.1975,340.435 L1334.1975,340.435 L1334.1975,427.57 C1334.1975,430.776667 1334.5675,433.366667 1335.3075,435.34 C1336.0475,437.313333 1337.1575,438.855 1338.6375,439.965 C1340.1175,441.075 1341.93667,441.845833 1344.095,442.2775 C1346.25333,442.709167 1348.75083,442.925 1351.5875,442.925 Z M1376.1925,381.875 L1366.3875,381.875 L1366.3875,353.2 C1367.74417,352.953333 1369.07,352.799167 1370.365,352.7375 C1371.66,352.675833 1373.29417,352.645 1375.2675,352.645 C1380.8175,352.645 1385.04167,353.909167 1387.94,356.4375 C1390.83833,358.965833 1392.2875,362.573333 1392.2875,367.26 C1392.2875,372.193333 1390.9,375.8625 1388.125,378.2675 C1385.35,380.6725 1381.3725,381.875 1376.1925,381.875 L1376.1925,381.875 Z M1484.0475,444.96 C1488.36417,444.96 1492.98917,444.59 1497.9225,443.85 C1502.85583,443.11 1507.29583,441.691667 1511.2425,439.595 C1516.4225,436.881667 1519.0125,432.75 1519.0125,427.2 C1519.0125,424.733333 1518.33417,422.39 1516.9775,420.17 C1515.62083,417.95 1513.95583,416.223333 1511.9825,414.99 C1509.14583,416.716667 1505.47667,418.2275 1500.975,419.5225 C1496.47333,420.8175 1491.69417,421.465 1486.6375,421.465 C1481.21083,421.465 1476.40083,420.4475 1472.2075,418.4125 C1468.01417,416.3775 1465.23917,413.325 1463.8825,409.255 L1463.8825,409.255 L1509.5775,402.41 C1513.77083,401.793333 1517.03917,400.375 1519.3825,398.155 C1521.72583,395.935 1522.8975,392.728333 1522.8975,388.535 C1522.8975,382.861667 1521.81833,377.62 1519.66,372.81 C1517.50167,368 1514.48,363.868333 1510.595,360.415 C1506.71,356.961667 1502.085,354.248333 1496.72,352.275 C1491.355,350.301667 1485.40417,349.315 1478.8675,349.315 C1473.07083,349.315 1467.3975,350.209167 1461.8475,351.9975 C1456.2975,353.785833 1451.36417,356.560833 1447.0475,360.3225 C1442.73083,364.084167 1439.24667,368.894167 1436.595,374.7525 C1433.94333,380.610833 1432.6175,387.61 1432.6175,395.75 C1432.6175,404.013333 1433.94333,411.228333 1436.595,417.395 C1439.24667,423.561667 1442.885,428.68 1447.51,432.75 C1452.135,436.82 1457.56167,439.8725 1463.79,441.9075 C1470.01833,443.9425 1476.77083,444.96 1484.0475,444.96 Z M1461.6625,388.535 C1461.78583,386.561667 1462.18667,384.619167 1462.865,382.7075 C1463.54333,380.795833 1464.56083,379.069167 1465.9175,377.5275 C1467.27417,375.985833 1469.03167,374.721667 1471.19,373.735 C1473.34833,372.748333 1475.9075,372.255 1478.8675,372.255 C1483.43083,372.255 1486.88417,373.488333 1489.2275,375.955 C1491.57083,378.421667 1492.9275,380.888333 1493.2975,383.355 L1493.2975,383.355 L1461.6625,388.535 Z M1572.2925,444.775 C1581.1725,444.775 1587.37,443.295 1590.885,440.335 C1594.4,437.375 1596.1575,433.551667 1596.1575,428.865 C1596.1575,426.521667 1595.75667,424.5175 1594.955,422.8525 C1594.15333,421.1875 1593.1975,419.676667 1592.0875,418.32 C1590.6075,418.813333 1588.88083,419.214167 1586.9075,419.5225 C1584.93417,419.830833 1583.0225,419.985 1581.1725,419.985 C1577.4725,419.985 1574.605,419.306667 1572.57,417.95 C1570.535,416.593333 1569.5175,414.311667 1569.5175,411.105 L1569.5175,411.105 L1569.5175,383.17 L1586.3525,383.17 C1589.55917,383.17 1592.11833,382.214167 1594.03,380.3025 C1595.94167,378.390833 1596.8975,375.276667 1596.8975,370.96 C1596.8975,368.493333 1596.55833,366.2425 1595.88,364.2075 C1595.20167,362.1725 1594.4925,360.476667 1593.7525,359.12 L1593.7525,359.12 L1569.5175,359.12 L1569.5175,347.28 C1569.5175,341.113333 1568.00667,337.074167 1564.985,335.1625 C1561.96333,333.250833 1557.73917,332.295 1552.3125,332.295 C1549.47583,332.295 1546.79333,332.510833 1544.265,332.9425 C1541.73667,333.374167 1539.79417,333.775 1538.4375,334.145 L1538.4375,334.145 L1538.4375,413.325 C1538.4375,424.425 1541.36667,432.441667 1547.225,437.375 C1553.08333,442.308333 1561.43917,444.775 1572.2925,444.775 Z M1668.8625,445.33 C1680.3325,445.33 1688.87333,443.5725 1694.485,440.0575 C1700.09667,436.5425 1702.9025,432.256667 1702.9025,427.2 C1702.9025,423.993333 1702.31667,421.1875 1701.145,418.7825 C1699.97333,416.3775 1698.33917,414.311667 1696.2425,412.585 C1693.03583,414.311667 1689.675,415.853333 1686.16,417.21 C1682.645,418.566667 1678.35917,419.245 1673.3025,419.245 C1663.80583,419.245 1656.25167,416.346667 1650.64,410.55 C1645.02833,404.753333 1642.2225,396.49 1642.2225,385.76 C1642.2225,375.153333 1644.75083,366.951667 1649.8075,361.155 C1654.86417,355.358333 1662.14083,352.46 1671.6375,352.46 C1676.4475,352.46 1680.67167,353.2 1684.31,354.68 C1687.94833,356.16 1691.37083,357.948333 1694.5775,360.045 C1696.67417,358.688333 1698.52417,356.838333 1700.1275,354.495 C1701.73083,352.151667 1702.5325,349.376667 1702.5325,346.17 C1702.5325,340.373333 1699.41833,335.625 1693.19,331.925 C1686.96167,328.225 1678.17417,326.375 1666.8275,326.375 C1658.81083,326.375 1651.2875,327.67 1644.2575,330.26 C1637.2275,332.85 1631.09167,336.673333 1625.85,341.73 C1620.60833,346.786667 1616.47667,352.984167 1613.455,360.3225 C1610.43333,367.660833 1608.9225,376.14 1608.9225,385.76 C1608.9225,396.12 1610.495,405.030833 1613.64,412.4925 C1616.785,419.954167 1621.07083,426.120833 1626.4975,430.9925 C1631.92417,435.864167 1638.27583,439.471667 1645.5525,441.815 C1652.82917,444.158333 1660.59917,445.33 1668.8625,445.33 Z M1759.8825,444.96 C1767.15917,444.96 1773.7575,443.911667 1779.6775,441.815 C1785.5975,439.718333 1790.685,436.635 1794.94,432.565 C1799.195,428.495 1802.49417,423.469167 1804.8375,417.4875 C1807.18083,411.505833 1808.3525,404.691667 1808.3525,397.045 C1808.3525,389.891667 1807.18083,383.355 1804.8375,377.435 C1802.49417,371.515 1799.195,366.489167 1794.94,362.3575 C1790.685,358.225833 1785.5975,355.019167 1779.6775,352.7375 C1773.7575,350.455833 1767.15917,349.315 1759.8825,349.315 C1752.60583,349.315 1746.0075,350.425 1740.0875,352.645 C1734.1675,354.865 1729.08,358.040833 1724.825,362.1725 C1720.57,366.304167 1717.27083,371.33 1714.9275,377.25 C1712.58417,383.17 1711.4125,389.768333 1711.4125,397.045 C1711.4125,404.445 1712.58417,411.105 1714.9275,417.025 C1717.27083,422.945 1720.57,427.970833 1724.825,432.1025 C1729.08,436.234167 1734.1675,439.41 1740.0875,441.63 C1746.0075,443.85 1752.60583,444.96 1759.8825,444.96 Z M1760.0675,420.355 C1754.8875,420.355 1750.84833,418.350833 1747.95,414.3425 C1745.05167,410.334167 1743.6025,404.568333 1743.6025,397.045 C1743.6025,389.645 1745.02083,383.940833 1747.8575,379.9325 C1750.69417,375.924167 1754.7025,373.92 1759.8825,373.92 C1765.0625,373.92 1769.07083,375.924167 1771.9075,379.9325 C1774.74417,383.940833 1776.1625,389.645 1776.1625,397.045 C1776.1625,404.445 1774.775,410.18 1772,414.25 C1769.225,418.32 1765.2475,420.355 1760.0675,420.355 Z M1898.0775,443.48 C1900.91417,443.48 1903.65833,443.295 1906.31,442.925 C1908.96167,442.555 1910.90417,442.185 1912.1375,441.815 L1912.1375,441.815 L1912.1375,383.91 C1912.1375,373.056667 1908.37583,364.5775 1900.8525,358.4725 C1893.32917,352.3675 1882.59917,349.315 1868.6625,349.315 C1860.8925,349.315 1853.83167,350.24 1847.48,352.09 C1841.12833,353.94 1835.85583,356.345 1831.6625,359.305 C1829.19583,361.031667 1827.25333,362.943333 1825.835,365.04 C1824.41667,367.136667 1823.7075,369.85 1823.7075,373.18 L1823.7075,373.18 L1823.7075,428.68 C1823.7075,431.763333 1824.10833,434.260833 1824.91,436.1725 C1825.71167,438.084167 1826.8525,439.595 1828.3325,440.705 C1829.8125,441.815 1831.63167,442.555 1833.79,442.925 C1835.94833,443.295 1838.38417,443.48 1841.0975,443.48 C1843.93417,443.48 1846.67833,443.295 1849.33,442.925 C1851.98167,442.555 1853.92417,442.185 1855.1575,441.815 L1855.1575,441.815 L1855.1575,377.62 C1856.88417,376.386667 1858.95,375.461667 1861.355,374.845 C1863.76,374.228333 1866.19583,373.92 1868.6625,373.92 C1872.3625,373.92 1875.29167,374.814167 1877.45,376.6025 C1879.60833,378.390833 1880.6875,381.196667 1880.6875,385.02 L1880.6875,385.02 L1880.6875,428.68 C1880.6875,431.763333 1881.08833,434.260833 1881.89,436.1725 C1882.69167,438.084167 1883.8325,439.595 1885.3125,440.705 C1886.7925,441.815 1888.61167,442.555 1890.77,442.925 C1892.92833,443.295 1895.36417,443.48 1898.0775,443.48 Z M2005.9325,443.48 C2008.76917,443.48 2011.51333,443.295 2014.165,442.925 C2016.81667,442.555 2018.75917,442.185 2019.9925,441.815 L2019.9925,441.815 L2019.9925,383.91 C2019.9925,373.056667 2016.23083,364.5775 2008.7075,358.4725 C2001.18417,352.3675 1990.45417,349.315 1976.5175,349.315 C1968.7475,349.315 1961.68667,350.24 1955.335,352.09 C1948.98333,353.94 1943.71083,356.345 1939.5175,359.305 C1937.05083,361.031667 1935.10833,362.943333 1933.69,365.04 C1932.27167,367.136667 1931.5625,369.85 1931.5625,373.18 L1931.5625,373.18 L1931.5625,428.68 C1931.5625,431.763333 1931.96333,434.260833 1932.765,436.1725 C1933.56667,438.084167 1934.7075,439.595 1936.1875,440.705 C1937.6675,441.815 1939.48667,442.555 1941.645,442.925 C1943.80333,443.295 1946.23917,443.48 1948.9525,443.48 C1951.78917,443.48 1954.53333,443.295 1957.185,442.925 C1959.83667,442.555 1961.77917,442.185 1963.0125,441.815 L1963.0125,441.815 L1963.0125,377.62 C1964.73917,376.386667 1966.805,375.461667 1969.21,374.845 C1971.615,374.228333 1974.05083,373.92 1976.5175,373.92 C1980.2175,373.92 1983.14667,374.814167 1985.305,376.6025 C1987.46333,378.390833 1988.5425,381.196667 1988.5425,385.02 L1988.5425,385.02 L1988.5425,428.68 C1988.5425,431.763333 1988.94333,434.260833 1989.745,436.1725 C1990.54667,438.084167 1991.6875,439.595 1993.1675,440.705 C1994.6475,441.815 1996.46667,442.555 1998.625,442.925 C2000.78333,443.295 2003.21917,443.48 2005.9325,443.48 Z M2086.9625,444.96 C2091.27917,444.96 2095.90417,444.59 2100.8375,443.85 C2105.77083,443.11 2110.21083,441.691667 2114.1575,439.595 C2119.3375,436.881667 2121.9275,432.75 2121.9275,427.2 C2121.9275,424.733333 2121.24917,422.39 2119.8925,420.17 C2118.53583,417.95 2116.87083,416.223333 2114.8975,414.99 C2112.06083,416.716667 2108.39167,418.2275 2103.89,419.5225 C2099.38833,420.8175 2094.60917,421.465 2089.5525,421.465 C2084.12583,421.465 2079.31583,420.4475 2075.1225,418.4125 C2070.92917,416.3775 2068.15417,413.325 2066.7975,409.255 L2066.7975,409.255 L2112.4925,402.41 C2116.68583,401.793333 2119.95417,400.375 2122.2975,398.155 C2124.64083,395.935 2125.8125,392.728333 2125.8125,388.535 C2125.8125,382.861667 2124.73333,377.62 2122.575,372.81 C2120.41667,368 2117.395,363.868333 2113.51,360.415 C2109.625,356.961667 2105,354.248333 2099.635,352.275 C2094.27,350.301667 2088.31917,349.315 2081.7825,349.315 C2075.98583,349.315 2070.3125,350.209167 2064.7625,351.9975 C2059.2125,353.785833 2054.27917,356.560833 2049.9625,360.3225 C2045.64583,364.084167 2042.16167,368.894167 2039.51,374.7525 C2036.85833,380.610833 2035.5325,387.61 2035.5325,395.75 C2035.5325,404.013333 2036.85833,411.228333 2039.51,417.395 C2042.16167,423.561667 2045.8,428.68 2050.425,432.75 C2055.05,436.82 2060.47667,439.8725 2066.705,441.9075 C2072.93333,443.9425 2079.68583,444.96 2086.9625,444.96 Z M2064.5775,388.535 C2064.70083,386.561667 2065.10167,384.619167 2065.78,382.7075 C2066.45833,380.795833 2067.47583,379.069167 2068.8325,377.5275 C2070.18917,375.985833 2071.94667,374.721667 2074.105,373.735 C2076.26333,372.748333 2078.8225,372.255 2081.7825,372.255 C2086.34583,372.255 2089.79917,373.488333 2092.1425,375.955 C2094.48583,378.421667 2095.8425,380.888333 2096.2125,383.355 L2096.2125,383.355 L2064.5775,388.535 Z M2188.5275,444.775 C2197.0375,444.775 2203.6975,443.3875 2208.5075,440.6125 C2213.3175,437.8375 2215.7225,433.921667 2215.7225,428.865 C2215.7225,426.028333 2215.10583,423.5925 2213.8725,421.5575 C2212.63917,419.5225 2210.78917,417.641667 2208.3225,415.915 C2206.22583,416.901667 2203.82083,417.826667 2201.1075,418.69 C2198.39417,419.553333 2195.1875,419.985 2191.4875,419.985 C2185.1975,419.985 2179.86333,418.073333 2175.485,414.25 C2171.10667,410.426667 2168.9175,404.691667 2168.9175,397.045 C2168.9175,393.221667 2169.53417,389.891667 2170.7675,387.055 C2172.00083,384.218333 2173.635,381.844167 2175.67,379.9325 C2177.705,378.020833 2180.11,376.571667 2182.885,375.585 C2185.66,374.598333 2188.58917,374.105 2191.6725,374.105 C2195.12583,374.105 2198.3325,374.5675 2201.2925,375.4925 C2204.2525,376.4175 2206.78083,377.373333 2208.8775,378.36 C2210.3575,376.88 2211.6525,375.1225 2212.7625,373.0875 C2213.8725,371.0525 2214.4275,368.863333 2214.4275,366.52 C2214.4275,361.463333 2212.0225,357.331667 2207.2125,354.125 C2202.4025,350.918333 2195.5575,349.315 2186.6775,349.315 C2180.0175,349.315 2173.69667,350.301667 2167.715,352.275 C2161.73333,354.248333 2156.46083,357.208333 2151.8975,361.155 C2147.33417,365.101667 2143.72667,370.1275 2141.075,376.2325 C2138.42333,382.3375 2137.0975,389.46 2137.0975,397.6 C2137.0975,404.63 2138.33083,411.043333 2140.7975,416.84 C2143.26417,422.636667 2146.74833,427.600833 2151.25,431.7325 C2155.75167,435.864167 2161.1475,439.070833 2167.4375,441.3525 C2173.7275,443.634167 2180.7575,444.775 2188.5275,444.775 Z M2265.6725,444.775 C2274.5525,444.775 2280.75,443.295 2284.265,440.335 C2287.78,437.375 2289.5375,433.551667 2289.5375,428.865 C2289.5375,426.521667 2289.13667,424.5175 2288.335,422.8525 C2287.53333,421.1875 2286.5775,419.676667 2285.4675,418.32 C2283.9875,418.813333 2282.26083,419.214167 2280.2875,419.5225 C2278.31417,419.830833 2276.4025,419.985 2274.5525,419.985 C2270.8525,419.985 2267.985,419.306667 2265.95,417.95 C2263.915,416.593333 2262.8975,414.311667 2262.8975,411.105 L2262.8975,411.105 L2262.8975,383.17 L2279.7325,383.17 C2282.93917,383.17 2285.49833,382.214167 2287.41,380.3025 C2289.32167,378.390833 2290.2775,375.276667 2290.2775,370.96 C2290.2775,368.493333 2289.93833,366.2425 2289.26,364.2075 C2288.58167,362.1725 2287.8725,360.476667 2287.1325,359.12 L2287.1325,359.12 L2262.8975,359.12 L2262.8975,347.28 C2262.8975,341.113333 2261.38667,337.074167 2258.365,335.1625 C2255.34333,333.250833 2251.11917,332.295 2245.6925,332.295 C2242.85583,332.295 2240.17333,332.510833 2237.645,332.9425 C2235.11667,333.374167 2233.17417,333.775 2231.8175,334.145 L2231.8175,334.145 L2231.8175,413.325 C2231.8175,424.425 2234.74667,432.441667 2240.605,437.375 C2246.46333,442.308333 2254.81917,444.775 2265.6725,444.775 Z" id="PetConnect" fill-rule="nonzero"></path>
        </g>
    </g>
</svg>