<?xml version="1.0" encoding="UTF-8"?>
<svg width="1175px" height="200px" viewBox="0 0 1175 200" version="1.1" xmlns="http://www.w3.org/2000/svg" xmlns:xlink="http://www.w3.org/1999/xlink">
    <!-- Generator: Sketch 63.1 (92452) - https://sketch.com -->
    <title>Artboard</title>
    <desc>Created with Sketch.</desc>
    <g id="Page-1" stroke="none" stroke-width="1" fill="none" fill-rule="evenodd">
        <g id="Artboard" transform="translate(-1035.000000, -290.000000)" fill="#FFFFFF">
            <path d="M1045.12515,408.083119 C1064.1757,415.207125 1108.43965,420.199764 1160.00394,420.199764 C1211.56218,420.199764 1255.82179,415.208296 1274.87602,408.085627 L1266.83159,459.268321 C1265.66419,465.14491 1263.81982,469.085958 1261.29848,471.091465 C1257.51646,474.099724 1254.34471,476.440256 1249.66522,478.152377 C1244.98573,479.864497 1236.8797,482.173167 1227.06531,483.715943 C1217.25093,485.258718 1202.48337,488.513365 1184.91913,489.281848 C1173.20964,489.79417 1164.90327,490.032378 1160.00004,489.996473 L1159.69559,489.998328 C1154.75635,490.022541 1146.55147,489.783714 1135.08095,489.281848 C1117.51671,488.513365 1102.74915,485.258718 1092.93476,483.715943 C1083.12038,482.173167 1075.01435,479.864497 1070.33486,478.152377 C1065.65537,476.440256 1062.48362,474.099724 1058.7016,471.091465 C1056.25442,469.144944 1054.44497,465.375062 1053.27325,459.78182 L1053.16849,459.268321 L1045.12515,408.083119 Z M1160.00389,449.117665 C1155.16849,449.117665 1150.4496,451.603866 1146.71658,456.118232 C1143.36102,460.175972 1141.35774,465.289909 1141.35774,469.797979 C1141.35774,471.987867 1142.02619,473.655899 1143.34444,474.755945 C1144.64557,475.841771 1146.36339,476.20896 1148.27986,476.20896 C1150.31912,476.20896 1152.58347,475.793037 1154.80826,475.384278 C1156.75237,475.027076 1158.58864,474.689736 1160.004,474.689736 C1161.22558,474.689736 1162.94795,475.009926 1164.77111,475.348895 C1169.03202,476.141231 1173.86156,477.039068 1176.65141,474.715894 C1177.97768,473.611506 1178.65014,471.956825 1178.65014,469.797979 C1178.65014,465.289909 1176.64697,460.175972 1173.2913,456.118232 C1169.55807,451.603866 1164.83928,449.117665 1160.00389,449.117665 Z M1135.90939,443.520375 C1132.67123,444.633184 1131.18792,448.844659 1132.59633,452.92697 C1134.00473,457.009279 1137.77151,459.416536 1141.00967,458.303729 C1144.24783,457.19092 1145.73114,452.979445 1144.32273,448.897135 C1142.91433,444.814825 1139.14755,442.407568 1135.90939,443.520375 Z M1175.67727,448.897135 C1174.26886,452.979445 1175.75217,457.19092 1178.99033,458.303729 C1182.22849,459.416536 1185.99527,457.009279 1187.40367,452.92697 C1188.81208,448.844659 1187.32877,444.633184 1184.09061,443.520375 C1180.85245,442.407568 1177.08567,444.814825 1175.67727,448.897135 Z M1151.53928,428.802943 L1151.3238,428.809843 C1147.36375,429.016975 1144.38532,433.599951 1144.67131,439.046206 C1144.95729,444.492461 1148.39939,448.739609 1152.35945,448.532477 C1156.3195,448.325345 1159.29793,443.742369 1159.01194,438.296114 C1158.73636,433.047905 1155.53002,428.91318 1151.75363,428.80476 L1151.53928,428.802943 Z M1168.46251,428.802943 L1168.24816,428.80476 C1164.47177,428.91318 1161.26543,433.047905 1160.98985,438.296114 C1160.70386,443.742369 1163.68229,448.325345 1167.64234,448.532477 C1171.6024,448.739609 1175.04449,444.492461 1175.33048,439.046206 C1175.61127,433.698974 1172.74527,429.183914 1168.893,428.82546 L1168.67799,428.809843 L1168.46251,428.802943 Z M1196.81306,375.993458 C1247.88131,378.505848 1285,386.10844 1285,395.097074 C1285,406.134131 1229.03559,415.081433 1160,415.081433 C1090.96441,415.081433 1035,406.134131 1035,395.097074 C1035,386.11712 1072.04704,378.520531 1123.03904,376.00075 C1122.10708,377.006324 1121.4588,377.94378 1121.01532,378.942421 C1079.03324,381.172946 1049.16667,386.893332 1049.16667,393.598247 C1049.16667,402.243941 1098.82575,409.252662 1160.08333,409.252662 C1221.34092,409.252662 1271,402.243941 1271,393.598247 C1271,386.872013 1240.9432,381.13658 1198.7518,378.921428 C1198.28866,377.915979 1197.6524,376.950881 1196.8449,376.031131 L1196.81306,375.993458 Z M1156.94809,362.907414 C1158.70484,362.778935 1161.22589,362.71553 1162.53471,362.778935 C1172.3675,363.194406 1182.45673,367.449226 1190.2447,374.518902 C1193.24533,377.238649 1194.29938,380.502347 1193.34191,384.116441 C1192.09636,388.818434 1188.45632,391.92195 1184.68972,391.538182 C1182.54998,391.314595 1181.01803,390.513688 1178.49531,388.242782 C1172.84541,383.188723 1167.29042,380.981222 1160.2984,380.981222 C1153.30637,380.981222 1147.75139,383.188723 1142.10149,388.242782 C1138.30325,391.664992 1135.52576,392.400826 1132.36528,390.865754 C1128.5354,388.946913 1126.17253,384.051367 1127.09836,379.701439 C1127.51465,377.559012 1128.59867,376.02394 1131.1214,373.848142 C1138.78282,367.257342 1147.49828,363.546471 1156.94809,362.907414 Z M1152.31893,326.726426 C1156.05556,326.24755 1167.92984,326.534542 1171.47498,327.175268 C1187.05258,329.958421 1199.9193,336.771139 1210.99431,348.095634 C1215.46527,352.670817 1216.48602,354.49455 1216.48602,357.91676 C1216.48602,361.275565 1215.59182,363.483066 1213.2939,365.785675 C1211.25074,367.801291 1209.59057,368.47372 1207.29265,368.153357 C1205.37771,367.898068 1204.13217,367.162234 1202.472,365.306799 C1195.83133,357.980165 1191.74501,354.492881 1185.9669,351.230853 C1177.95413,346.752446 1169.68659,344.60835 1160.30006,344.60835 C1150.9152,344.60835 1142.646,346.752446 1134.63323,351.230853 C1128.85511,354.49455 1124.7688,357.981834 1118.12813,365.306799 C1115.7969,367.898068 1113.37075,368.729009 1110.52998,367.961473 C1108.51847,367.417523 1105.70933,364.570965 1104.81514,362.108175 C1103.73112,359.259949 1103.82603,356.12473 1105.10321,353.630238 C1106.1889,351.391034 1111.80716,345.504365 1116.08497,342.082155 C1126.49224,333.699325 1139.10253,328.358275 1152.31893,326.726426 Z M1153.2764,290.098265 C1156.40524,289.811273 1169.27196,290.195041 1173.0702,290.705619 C1192.92728,293.263517 1210.70956,300.813737 1226.54361,313.449719 C1231.49081,317.415878 1240.11136,326.0857 1241.10047,328.133019 C1242.21779,330.468999 1242.18615,334.148167 1241.03719,336.610957 C1239.88823,339.075416 1238.7709,340.290125 1236.72775,341.281248 C1235.29238,341.985379 1234.68459,342.113858 1233.15264,341.985379 C1232.16187,341.921974 1230.75814,341.569908 1230.08707,341.249545 C1229.38438,340.89748 1226.86332,338.626574 1224.18074,335.875124 C1218.81725,330.34052 1214.06154,326.342658 1208.72968,322.823671 C1197.65302,315.465335 1186.0002,311.0203 1172.11273,308.876204 C1166.9091,308.076965 1153.69269,308.076965 1148.48906,308.876204 C1134.60159,311.0203 1122.95044,315.465335 1111.87211,322.823671 C1106.54192,326.342658 1101.78454,330.34052 1096.42105,335.875124 C1093.73847,338.626574 1091.21741,340.89748 1090.51471,341.249545 C1089.84365,341.569908 1088.43826,341.921974 1087.44915,341.985379 C1085.9172,342.113858 1085.31108,341.985379 1083.87404,341.281248 C1080.58534,339.651068 1078.73368,336.450776 1078.73368,332.292732 C1078.73368,328.581916 1079.22444,327.618028 1084.8164,322.005894 L1085.7257,321.096715 C1095.11057,311.724431 1104.94336,304.813268 1116.27646,299.63073 C1128.05583,294.224606 1139.10253,291.378048 1153.2764,290.098265 Z" id="Combined-Shape"></path>
            <path d="M1354.6725,442.925 C1357.50917,442.925 1360.37667,442.74 1363.275,442.37 C1366.17333,442 1368.30083,441.63 1369.6575,441.26 L1369.6575,441.26 L1369.6575,402.225 L1402.0325,402.225 C1405.48583,402.225 1408.23,401.2075 1410.265,399.1725 C1412.3,397.1375 1413.3175,393.776667 1413.3175,389.09 C1413.3175,386.623333 1412.97833,384.28 1412.3,382.06 C1411.62167,379.84 1410.78917,378.051667 1409.8025,376.695 L1409.8025,376.695 L1369.2875,376.695 L1369.2875,355.79 L1408.1375,355.79 C1411.59083,355.79 1414.335,354.7725 1416.37,352.7375 C1418.405,350.7025 1419.4225,347.28 1419.4225,342.47 C1419.4225,340.003333 1419.08333,337.629167 1418.405,335.3475 C1417.72667,333.065833 1416.95583,331.246667 1416.0925,329.89 L1416.0925,329.89 L1354.4875,329.89 C1349.18417,329.89 1344.99083,331.431667 1341.9075,334.515 C1338.82417,337.598333 1337.2825,341.791667 1337.2825,347.095 L1337.2825,347.095 L1337.2825,427.57 C1337.2825,430.776667 1337.6525,433.366667 1338.3925,435.34 C1339.1325,437.313333 1340.2425,438.855 1341.7225,439.965 C1343.2025,441.075 1345.02167,441.845833 1347.18,442.2775 C1349.33833,442.709167 1351.83583,442.925 1354.6725,442.925 Z M1476.5875,444.96 C1480.90417,444.96 1485.52917,444.59 1490.4625,443.85 C1495.39583,443.11 1499.83583,441.691667 1503.7825,439.595 C1508.9625,436.881667 1511.5525,432.75 1511.5525,427.2 C1511.5525,424.733333 1510.87417,422.39 1509.5175,420.17 C1508.16083,417.95 1506.49583,416.223333 1504.5225,414.99 C1501.68583,416.716667 1498.01667,418.2275 1493.515,419.5225 C1489.01333,420.8175 1484.23417,421.465 1479.1775,421.465 C1473.75083,421.465 1468.94083,420.4475 1464.7475,418.4125 C1460.55417,416.3775 1457.77917,413.325 1456.4225,409.255 L1456.4225,409.255 L1502.1175,402.41 C1506.31083,401.793333 1509.57917,400.375 1511.9225,398.155 C1514.26583,395.935 1515.4375,392.728333 1515.4375,388.535 C1515.4375,382.861667 1514.35833,377.62 1512.2,372.81 C1510.04167,368 1507.02,363.868333 1503.135,360.415 C1499.25,356.961667 1494.625,354.248333 1489.26,352.275 C1483.895,350.301667 1477.94417,349.315 1471.4075,349.315 C1465.61083,349.315 1459.9375,350.209167 1454.3875,351.9975 C1448.8375,353.785833 1443.90417,356.560833 1439.5875,360.3225 C1435.27083,364.084167 1431.78667,368.894167 1429.135,374.7525 C1426.48333,380.610833 1425.1575,387.61 1425.1575,395.75 C1425.1575,404.013333 1426.48333,411.228333 1429.135,417.395 C1431.78667,423.561667 1435.425,428.68 1440.05,432.75 C1444.675,436.82 1450.10167,439.8725 1456.33,441.9075 C1462.55833,443.9425 1469.31083,444.96 1476.5875,444.96 Z M1454.2025,388.535 C1454.32583,386.561667 1454.72667,384.619167 1455.405,382.7075 C1456.08333,380.795833 1457.10083,379.069167 1458.4575,377.5275 C1459.81417,375.985833 1461.57167,374.721667 1463.73,373.735 C1465.88833,372.748333 1468.4475,372.255 1471.4075,372.255 C1475.97083,372.255 1479.42417,373.488333 1481.7675,375.955 C1484.11083,378.421667 1485.4675,380.888333 1485.8375,383.355 L1485.8375,383.355 L1454.2025,388.535 Z M1578.1525,444.96 C1582.46917,444.96 1587.09417,444.59 1592.0275,443.85 C1596.96083,443.11 1601.40083,441.691667 1605.3475,439.595 C1610.5275,436.881667 1613.1175,432.75 1613.1175,427.2 C1613.1175,424.733333 1612.43917,422.39 1611.0825,420.17 C1609.72583,417.95 1608.06083,416.223333 1606.0875,414.99 C1603.25083,416.716667 1599.58167,418.2275 1595.08,419.5225 C1590.57833,420.8175 1585.79917,421.465 1580.7425,421.465 C1575.31583,421.465 1570.50583,420.4475 1566.3125,418.4125 C1562.11917,416.3775 1559.34417,413.325 1557.9875,409.255 L1557.9875,409.255 L1603.6825,402.41 C1607.87583,401.793333 1611.14417,400.375 1613.4875,398.155 C1615.83083,395.935 1617.0025,392.728333 1617.0025,388.535 C1617.0025,382.861667 1615.92333,377.62 1613.765,372.81 C1611.60667,368 1608.585,363.868333 1604.7,360.415 C1600.815,356.961667 1596.19,354.248333 1590.825,352.275 C1585.46,350.301667 1579.50917,349.315 1572.9725,349.315 C1567.17583,349.315 1561.5025,350.209167 1555.9525,351.9975 C1550.4025,353.785833 1545.46917,356.560833 1541.1525,360.3225 C1536.83583,364.084167 1533.35167,368.894167 1530.7,374.7525 C1528.04833,380.610833 1526.7225,387.61 1526.7225,395.75 C1526.7225,404.013333 1528.04833,411.228333 1530.7,417.395 C1533.35167,423.561667 1536.99,428.68 1541.615,432.75 C1546.24,436.82 1551.66667,439.8725 1557.895,441.9075 C1564.12333,443.9425 1570.87583,444.96 1578.1525,444.96 Z M1555.7675,388.535 C1555.89083,386.561667 1556.29167,384.619167 1556.97,382.7075 C1557.64833,380.795833 1558.66583,379.069167 1560.0225,377.5275 C1561.37917,375.985833 1563.13667,374.721667 1565.295,373.735 C1567.45333,372.748333 1570.0125,372.255 1572.9725,372.255 C1577.53583,372.255 1580.98917,373.488333 1583.3325,375.955 C1585.67583,378.421667 1587.0325,380.888333 1587.4025,383.355 L1587.4025,383.355 L1555.7675,388.535 Z M1679.3475,444.96 C1686.7475,444.96 1693.28417,444.065833 1698.9575,442.2775 C1704.63083,440.489167 1709.25583,438.423333 1712.8325,436.08 C1718.25917,432.626667 1720.9725,428.001667 1720.9725,422.205 L1720.9725,422.205 L1720.9725,334.515 C1720.9725,331.431667 1720.6025,328.934167 1719.8625,327.0225 C1719.1225,325.110833 1718.0125,323.6 1716.5325,322.49 C1715.0525,321.38 1713.23333,320.64 1711.075,320.27 C1708.91667,319.9 1706.48083,319.715 1703.7675,319.715 C1700.93083,319.715 1698.15583,319.930833 1695.4425,320.3625 C1692.72917,320.794167 1690.75583,321.195 1689.5225,321.565 L1689.5225,321.565 L1689.5225,351.535 C1688.0425,350.918333 1686.13083,350.394167 1683.7875,349.9625 C1681.44417,349.530833 1679.03917,349.315 1676.5725,349.315 C1669.78917,349.315 1663.46833,350.270833 1657.61,352.1825 C1651.75167,354.094167 1646.63333,357.023333 1642.255,360.97 C1637.87667,364.916667 1634.45417,369.880833 1631.9875,375.8625 C1629.52083,381.844167 1628.2875,388.905 1628.2875,397.045 C1628.2875,404.445 1629.42833,411.074167 1631.71,416.9325 C1633.99167,422.790833 1637.32167,427.816667 1641.7,432.01 C1646.07833,436.203333 1651.44333,439.41 1657.795,441.63 C1664.14667,443.85 1671.33083,444.96 1679.3475,444.96 Z M1679.5325,420.17 C1673.2425,420.17 1668.4325,418.2275 1665.1025,414.3425 C1661.7725,410.4575 1660.1075,404.691667 1660.1075,397.045 C1660.1075,389.275 1661.89583,383.478333 1665.4725,379.655 C1669.04917,375.831667 1674.1675,373.92 1680.8275,373.92 C1684.28083,373.92 1687.24083,374.66 1689.7075,376.14 L1689.7075,376.14 L1689.7075,416.84 C1688.72083,417.703333 1687.33333,418.474167 1685.545,419.1525 C1683.75667,419.830833 1681.7525,420.17 1679.5325,420.17 Z M1788.1275,444.96 C1792.44417,444.96 1797.06917,444.59 1802.0025,443.85 C1806.93583,443.11 1811.37583,441.691667 1815.3225,439.595 C1820.5025,436.881667 1823.0925,432.75 1823.0925,427.2 C1823.0925,424.733333 1822.41417,422.39 1821.0575,420.17 C1819.70083,417.95 1818.03583,416.223333 1816.0625,414.99 C1813.22583,416.716667 1809.55667,418.2275 1805.055,419.5225 C1800.55333,420.8175 1795.77417,421.465 1790.7175,421.465 C1785.29083,421.465 1780.48083,420.4475 1776.2875,418.4125 C1772.09417,416.3775 1769.31917,413.325 1767.9625,409.255 L1767.9625,409.255 L1813.6575,402.41 C1817.85083,401.793333 1821.11917,400.375 1823.4625,398.155 C1825.80583,395.935 1826.9775,392.728333 1826.9775,388.535 C1826.9775,382.861667 1825.89833,377.62 1823.74,372.81 C1821.58167,368 1818.56,363.868333 1814.675,360.415 C1810.79,356.961667 1806.165,354.248333 1800.8,352.275 C1795.435,350.301667 1789.48417,349.315 1782.9475,349.315 C1777.15083,349.315 1771.4775,350.209167 1765.9275,351.9975 C1760.3775,353.785833 1755.44417,356.560833 1751.1275,360.3225 C1746.81083,364.084167 1743.32667,368.894167 1740.675,374.7525 C1738.02333,380.610833 1736.6975,387.61 1736.6975,395.75 C1736.6975,404.013333 1738.02333,411.228333 1740.675,417.395 C1743.32667,423.561667 1746.965,428.68 1751.59,432.75 C1756.215,436.82 1761.64167,439.8725 1767.87,441.9075 C1774.09833,443.9425 1780.85083,444.96 1788.1275,444.96 Z M1765.7425,388.535 C1765.86583,386.561667 1766.26667,384.619167 1766.945,382.7075 C1767.62333,380.795833 1768.64083,379.069167 1769.9975,377.5275 C1771.35417,375.985833 1773.11167,374.721667 1775.27,373.735 C1777.42833,372.748333 1779.9875,372.255 1782.9475,372.255 C1787.51083,372.255 1790.96417,373.488333 1793.3075,375.955 C1795.65083,378.421667 1797.0075,380.888333 1797.3775,383.355 L1797.3775,383.355 L1765.7425,388.535 Z M1859.5375,443.48 C1862.37417,443.48 1865.11833,443.295 1867.77,442.925 C1870.42167,442.555 1872.36417,442.185 1873.5975,441.815 L1873.5975,441.815 L1873.5975,378.73 C1875.20083,377.99 1877.14333,377.3425 1879.425,376.7875 C1881.70667,376.2325 1884.1425,375.708333 1886.7325,375.215 C1889.3225,374.721667 1891.97417,374.351667 1894.6875,374.105 C1897.40083,373.858333 1900.0525,373.735 1902.6425,373.735 C1903.3825,372.378333 1903.99917,370.8675 1904.4925,369.2025 C1904.98583,367.5375 1905.2325,365.841667 1905.2325,364.115 C1905.2325,358.935 1903.50583,355.204167 1900.0525,352.9225 C1896.59917,350.640833 1891.9125,349.5 1885.9925,349.5 C1882.41583,349.5 1878.83917,349.7775 1875.2625,350.3325 C1871.68583,350.8875 1868.2325,351.658333 1864.9025,352.645 C1861.5725,353.631667 1858.45833,354.7725 1855.56,356.0675 C1852.66167,357.3625 1850.22583,358.811667 1848.2525,360.415 C1846.27917,362.018333 1844.76833,363.8375 1843.72,365.8725 C1842.67167,367.9075 1842.1475,370.343333 1842.1475,373.18 L1842.1475,373.18 L1842.1475,428.68 C1842.1475,431.763333 1842.54833,434.260833 1843.35,436.1725 C1844.15167,438.084167 1845.2925,439.595 1846.7725,440.705 C1848.2525,441.815 1850.07167,442.555 1852.23,442.925 C1854.38833,443.295 1856.82417,443.48 1859.5375,443.48 Z M2002.9125,443.48 C2007.47583,443.48 2011.39167,443.0175 2014.66,442.0925 C2017.92833,441.1675 2020.42583,439.841667 2022.1525,438.115 L2022.1525,438.115 L2022.1525,343.025 C2022.1525,336.981667 2020.73417,333.004167 2017.8975,331.0925 C2015.06083,329.180833 2010.92917,328.225 2005.5025,328.225 C2002.78917,328.225 2000.045,328.41 1997.27,328.78 C1994.495,329.15 1992.42917,329.52 1991.0725,329.89 L1991.0725,329.89 L1991.0725,359.86 C1991.0725,366.52 1991.13417,373.18 1991.2575,379.84 C1991.38083,386.5 1991.68917,393.16 1992.1825,399.82 L1992.1825,399.82 L1991.2575,400.005 C1989.53083,395.565 1987.9275,391.649167 1986.4475,388.2575 C1984.9675,384.865833 1983.3025,381.258333 1981.4525,377.435 L1981.4525,377.435 L1962.9525,340.065 C1960.48583,335.008333 1957.18667,331.770833 1953.055,330.3525 C1948.92333,328.934167 1944.57583,328.225 1940.0125,328.225 C1935.9425,328.225 1932.11917,328.841667 1928.5425,330.075 C1924.96583,331.308333 1922.31417,333.158333 1920.5875,335.625 L1920.5875,335.625 L1920.5875,428.125 C1920.5875,431.208333 1920.9575,433.705833 1921.6975,435.6175 C1922.4375,437.529167 1923.48583,439.04 1924.8425,440.15 C1926.19917,441.26 1927.92583,442 1930.0225,442.37 C1932.11917,442.74 1934.52417,442.925 1937.2375,442.925 C1939.95083,442.925 1942.695,442.74 1945.47,442.37 C1948.245,442 1950.31083,441.63 1951.6675,441.26 L1951.6675,441.26 L1951.6675,412.585 C1951.6675,405.925 1951.63667,399.141667 1951.575,392.235 C1951.51333,385.328333 1951.23583,378.545 1950.7425,371.885 L1950.7425,371.885 L1951.8525,371.7 C1953.57917,376.14 1955.1825,380.055833 1956.6625,383.4475 C1958.1425,386.839167 1959.8075,390.446667 1961.6575,394.27 L1961.6575,394.27 L1979.9725,431.64 C1982.5625,436.82 1985.8925,440.088333 1989.9625,441.445 C1994.0325,442.801667 1998.34917,443.48 2002.9125,443.48 Z M2091.3425,444.96 C2095.65917,444.96 2100.28417,444.59 2105.2175,443.85 C2110.15083,443.11 2114.59083,441.691667 2118.5375,439.595 C2123.7175,436.881667 2126.3075,432.75 2126.3075,427.2 C2126.3075,424.733333 2125.62917,422.39 2124.2725,420.17 C2122.91583,417.95 2121.25083,416.223333 2119.2775,414.99 C2116.44083,416.716667 2112.77167,418.2275 2108.27,419.5225 C2103.76833,420.8175 2098.98917,421.465 2093.9325,421.465 C2088.50583,421.465 2083.69583,420.4475 2079.5025,418.4125 C2075.30917,416.3775 2072.53417,413.325 2071.1775,409.255 L2071.1775,409.255 L2116.8725,402.41 C2121.06583,401.793333 2124.33417,400.375 2126.6775,398.155 C2129.02083,395.935 2130.1925,392.728333 2130.1925,388.535 C2130.1925,382.861667 2129.11333,377.62 2126.955,372.81 C2124.79667,368 2121.775,363.868333 2117.89,360.415 C2114.005,356.961667 2109.38,354.248333 2104.015,352.275 C2098.65,350.301667 2092.69917,349.315 2086.1625,349.315 C2080.36583,349.315 2074.6925,350.209167 2069.1425,351.9975 C2063.5925,353.785833 2058.65917,356.560833 2054.3425,360.3225 C2050.02583,364.084167 2046.54167,368.894167 2043.89,374.7525 C2041.23833,380.610833 2039.9125,387.61 2039.9125,395.75 C2039.9125,404.013333 2041.23833,411.228333 2043.89,417.395 C2046.54167,423.561667 2050.18,428.68 2054.805,432.75 C2059.43,436.82 2064.85667,439.8725 2071.085,441.9075 C2077.31333,443.9425 2084.06583,444.96 2091.3425,444.96 Z M2068.9575,388.535 C2069.08083,386.561667 2069.48167,384.619167 2070.16,382.7075 C2070.83833,380.795833 2071.85583,379.069167 2073.2125,377.5275 C2074.56917,375.985833 2076.32667,374.721667 2078.485,373.735 C2080.64333,372.748333 2083.2025,372.255 2086.1625,372.255 C2090.72583,372.255 2094.17917,373.488333 2096.5225,375.955 C2098.86583,378.421667 2100.2225,380.888333 2100.5925,383.355 L2100.5925,383.355 L2068.9575,388.535 Z M2179.5875,444.775 C2188.4675,444.775 2194.665,443.295 2198.18,440.335 C2201.695,437.375 2203.4525,433.551667 2203.4525,428.865 C2203.4525,426.521667 2203.05167,424.5175 2202.25,422.8525 C2201.44833,421.1875 2200.4925,419.676667 2199.3825,418.32 C2197.9025,418.813333 2196.17583,419.214167 2194.2025,419.5225 C2192.22917,419.830833 2190.3175,419.985 2188.4675,419.985 C2184.7675,419.985 2181.9,419.306667 2179.865,417.95 C2177.83,416.593333 2176.8125,414.311667 2176.8125,411.105 L2176.8125,411.105 L2176.8125,383.17 L2193.6475,383.17 C2196.85417,383.17 2199.41333,382.214167 2201.325,380.3025 C2203.23667,378.390833 2204.1925,375.276667 2204.1925,370.96 C2204.1925,368.493333 2203.85333,366.2425 2203.175,364.2075 C2202.49667,362.1725 2201.7875,360.476667 2201.0475,359.12 L2201.0475,359.12 L2176.8125,359.12 L2176.8125,347.28 C2176.8125,341.113333 2175.30167,337.074167 2172.28,335.1625 C2169.25833,333.250833 2165.03417,332.295 2159.6075,332.295 C2156.77083,332.295 2154.08833,332.510833 2151.56,332.9425 C2149.03167,333.374167 2147.08917,333.775 2145.7325,334.145 L2145.7325,334.145 L2145.7325,413.325 C2145.7325,424.425 2148.66167,432.441667 2154.52,437.375 C2160.37833,442.308333 2168.73417,444.775 2179.5875,444.775 Z" id="FeederNet" fill-rule="nonzero"></path>
        </g>
    </g>
</svg>